#!OML:ASF F:\VICON\USERDATA\INSTALL\rory3\rory3.ASF
:FULLY-SPECIFIED
:DEGREES
754
root 6.36653 17.8605 11.1601 531.464 53.5377 -185.272
lowerback 12.0436 0.904021 -3.9814
upperback 0.908723 0.697238 -0.818303
thorax -5.84041 0.468593 1.26463
lowerneck -19.5884 -3.02623 -10.0014
upperneck 38.395 0.540426 2.40616
head 17.4923 -0.240757 3.19318
rclavicle 8.21229e-014 1.15295e-014
rhumerus -36.4784 -10.9828 -80.1196
rradius 30.7828
rwrist 5.68735
rhand -15.4464 8.7182
rfingers 7.12502
rthumb 10.7342 -20.9876
lclavicle 8.21229e-014 1.15295e-014
lhumerus -31.8951 2.71066 82.7382
lradius 36.3443
lwrist -4.12964
lhand -18.3609 25.6124
lfingers 7.12502
lthumb 7.92201 55.444
rfemur -19.0133 -2.39163 13.9233
rtibia 59.4445
rfoot -8.4997 -7.42994
rtoes -1.74198
lfemur -0.724968 -0.971883 -31.6063
ltibia 19.0235
lfoot -8.46966 -4.02207
ltoes 16.949
755
root 6.46288 17.8416 11.1107 531.554 52.7309 -185.281
lowerback 11.9499 0.815257 -4.07412
upperback 0.979246 0.57791 -0.794365
thorax -5.70825 0.410704 1.36379
lowerneck -19.6566 -3.05155 -9.95608
upperneck 38.3436 0.541026 2.2837
head 17.4832 -0.250468 3.12744
rclavicle -1.4345e-013 3.47873e-015
rhumerus -36.4304 -10.9572 -80.1044
rradius 30.7591
rwrist 5.68144
rhand -15.7611 8.74533
rfingers 7.12502
rthumb 10.4306 -20.9759
lclavicle -1.4345e-013 3.47873e-015
lhumerus -31.7149 2.53096 82.9659
lradius 36.9973
lwrist -4.01079
lhand -18.4482 25.7218
lfingers 7.12502
lthumb 7.83772 55.5565
rfemur -19.5885 -2.07993 13.7664
rtibia 58.1143
rfoot -8.70742 -7.77504
rtoes -4.67542
lfemur -0.648227 -1.08895 -31.7041
ltibia 19.4583
lfoot -9.04683 -4.33212
ltoes 14.2088
756
root 6.55967 17.8328 11.06 531.718 52.0638 -185.164
lowerback 11.8861 0.758522 -3.98092
upperback 1.03982 0.520725 -0.831203
thorax -5.60421 0.378681 1.28319
lowerneck -19.6949 -3.0883 -9.91503
upperneck 38.2828 0.476819 2.26177
head 17.4648 -0.272335 3.09517
rclavicle 8.72696e-014 -2.34566e-014
rhumerus -36.4583 -11.0257 -80.2031
rradius 30.7866
rwrist 5.75702
rhand -15.8525 8.71999
rfingers 7.12502
rthumb 10.3424 -21.0057
lclavicle 8.72696e-014 -2.34566e-014
lhumerus -31.5418 2.09584 83.1024
lradius 37.6017
lwrist -3.85191
lhand -18.172 25.602
lfingers 7.12502
lthumb 8.10437 55.4266
rfemur -20.023 -1.49529 13.7063
rtibia 56.6292
rfoot -8.93607 -8.16042
rtoes -6.20157
lfemur -0.403776 -1.42106 -31.6779
ltibia 19.6813
lfoot -9.56681 -4.51426
ltoes 8.79135
757
root 6.65432 17.825 11.0092 531.849 51.3924 -185.033
lowerback 11.832 0.644274 -3.6602
upperback 1.12946 0.411393 -1.0334
thorax -5.46974 0.31496 0.909434
lowerneck -19.6646 -3.06125 -9.75212
upperneck 38.1505 0.374643 2.39053
head 17.3858 -0.269358 3.09902
rclavicle -1.73191e-014 -3.67752e-015
rhumerus -36.4172 -11.2081 -80.5307
rradius 30.7056
rwrist 5.96128
rhand -15.731 9.14647
rfingers 7.12502
rthumb 10.4596 -20.5733
lclavicle -1.73191e-014 -3.67752e-015
lhumerus -31.2416 1.48709 82.9904
lradius 38.0428
lwrist -3.73008
lhand -18.3785 25.5353
lfingers 7.12502
lthumb 7.90501 55.3675
rfemur -20.3186 -0.713972 13.6208
rtibia 54.9755
rfoot -9.2205 -8.59327
rtoes -5.94851
lfemur -0.0111672 -1.92608 -31.653
ltibia 19.7427
lfoot -9.68808 -4.43616
ltoes 1.91376
758
root 6.74793 17.8244 10.957 531.971 50.6806 -184.945
lowerback 11.757 0.532202 -3.3787
upperback 1.23545 0.302437 -1.22519
thorax -5.30894 0.253068 0.568889
lowerneck -19.662 -3.02478 -9.52164
upperneck 38.0365 0.296438 2.45037
head 17.3223 -0.257053 3.06527
rclavicle 6.87609e-014 -1.5704e-014
rhumerus -36.3573 -11.49 -80.785
rradius 30.6696
rwrist 6.0695
rhand -15.5852 9.32297
rfingers 7.12502
rthumb 10.6003 -20.3897
lclavicle 6.87609e-014 -1.5704e-014
lhumerus -30.8898 0.859937 82.9071
lradius 38.5059
lwrist -3.49816
lhand -18.9415 25.3965
lfingers 7.12502
lthumb 7.36166 55.2484
rfemur -20.5744 -0.0574277 13.4282
rtibia 53.1572
rfoot -9.37177 -8.88606
rtoes -6.14283
lfemur 0.31492 -2.58017 -31.6929
ltibia 19.8385
lfoot -10.0062 -4.1813
ltoes 9.26358
759
root 6.83886 17.8325 10.9061 532.352 49.91 -184.666
lowerback 11.7363 0.473746 -3.38732
upperback 1.22643 0.230674 -1.05198
thorax -5.30509 0.21825 0.767111
lowerneck -19.6498 -3.06975 -9.61062
upperneck 37.991 0.302119 2.37029
head 17.2979 -0.275351 3.04409
rclavicle 4.27387e-015 1.41137e-014
rhumerus -36.389 -11.4726 -80.5679
rradius 30.626
rwrist 6.03691
rhand -15.4749 9.30727
rfingers 7.12502
rthumb 10.7067 -20.3999
lclavicle 4.27387e-015 1.41137e-014
lhumerus -30.7419 0.457476 83.2766
lradius 39.0332
lwrist -3.28501
lhand -18.8138 25.2171
lfingers 7.12502
lthumb 7.48488 55.0646
rfemur -20.8493 0.591592 13.3265
rtibia 51.1908
rfoot -9.5465 -9.16299
rtoes -6.09531
lfemur 0.497402 -3.05972 -31.5431
ltibia 19.9282
lfoot -10.3603 -4.56514
ltoes 11.6688
